# Blender 3.4.1
# www.blender.org
mtllib car-prison.mtl
o Plane
v -150.000000 10.000000 140.000000
v -140.000000 10.000000 150.000000
v -140.000000 0.000000 140.000000
v -149.661957 10.000000 144.102570
v -147.745972 10.000000 147.745972
v -149.661957 5.897431 140.000000
v -149.177994 5.659480 144.340515
v -147.478790 5.867801 147.478790
v -146.670975 3.329029 146.670975
v -140.000000 5.897431 149.661957
v -140.000000 2.254033 147.745972
v -144.102570 10.000000 149.661957
v -144.340515 5.659480 149.177994
v -144.132202 2.521208 147.478790
v -144.102570 0.338048 140.000000
v -147.745972 2.254033 140.000000
v -140.000000 0.338048 144.102570
v -144.340515 0.822000 144.340515
v -147.478790 2.521207 144.132202
v 140.000000 10.000000 150.000000
v 150.000000 10.000000 140.000000
v 140.000000 0.000000 140.000000
v 144.102570 10.000000 149.661957
v 147.745972 10.000000 147.745972
v 140.000000 5.897431 149.661957
v 144.340515 5.659480 149.177994
v 147.478790 5.867801 147.478790
v 146.670975 3.329029 146.670975
v 149.661957 5.897431 140.000000
v 147.745972 2.254033 140.000000
v 149.661957 10.000000 144.102570
v 149.177994 5.659480 144.340515
v 147.478790 2.521208 144.132202
v 140.000000 0.338048 144.102570
v 140.000000 2.254033 147.745972
v 144.102570 0.338048 140.000000
v 144.340515 0.822000 144.340515
v 144.132202 2.521207 147.478790
v -150.000000 10.000000 -140.000000
v -140.000000 0.000000 -140.000000
v -140.000000 10.000000 -150.000000
v -149.661957 5.897431 -140.000000
v -147.745972 2.254033 -140.000000
v -149.661957 10.000000 -144.102570
v -149.177994 5.659480 -144.340515
v -147.478790 2.521207 -144.132202
v -146.670975 3.329030 -146.670975
v -140.000000 0.338048 -144.102570
v -140.000000 2.254033 -147.745972
v -144.102570 0.338048 -140.000000
v -144.340515 0.822000 -144.340515
v -144.132202 2.521207 -147.478790
v -144.102570 10.000000 -149.661957
v -147.745972 10.000000 -147.745972
v -140.000000 5.897431 -149.661957
v -144.340515 5.659480 -149.177994
v -147.478790 5.867801 -147.478790
v 150.000000 10.000000 -140.000000
v 140.000000 10.000000 -150.000000
v 140.000000 0.000000 -140.000000
v 149.661957 10.000000 -144.102570
v 147.745972 10.000000 -147.745972
v 149.661957 5.897431 -140.000000
v 149.177994 5.659480 -144.340515
v 147.478790 5.867801 -147.478790
v 146.670975 3.329029 -146.670975
v 140.000000 5.897431 -149.661957
v 140.000000 2.254033 -147.745972
v 144.102570 10.000000 -149.661957
v 144.340515 5.659480 -149.177994
v 144.132202 2.521208 -147.478790
v 144.102570 0.338048 -140.000000
v 147.745972 2.254033 -140.000000
v 140.000000 0.338048 -144.102570
v 144.340515 0.822000 -144.340515
v 147.478790 2.521207 -144.132202
v -140.000000 30.000000 150.000000
v -150.000000 30.000000 140.000000
v -144.102570 30.000000 149.661957
v -147.745972 30.000000 147.745972
v -149.661957 30.000000 144.102570
v 150.000000 30.000000 140.000000
v 140.000000 30.000000 150.000000
v 149.661957 30.000000 144.102570
v 147.745972 30.000000 147.745972
v 144.102570 30.000000 149.661957
v -150.000000 30.000000 -140.000000
v -140.000000 30.000000 -150.000000
v -149.661957 30.000000 -144.102570
v -147.745972 30.000000 -147.745972
v -144.102570 30.000000 -149.661957
v 140.000000 30.000000 -150.000000
v 150.000000 30.000000 -140.000000
v 144.102570 30.000000 -149.661957
v 147.745972 30.000000 -147.745972
v 149.661957 30.000000 -144.102570
vn 0.0411 -0.0000 -0.9992
vn -0.0410 0.0410 -0.9983
vn 0.0410 0.0410 -0.9983
vn -0.0411 -0.0000 0.9992
vn 0.0410 0.0410 0.9983
vn -0.0410 0.0410 0.9983
vn -0.0410 0.9983 -0.0410
vn 0.0410 0.9983 0.0410
vn 0.0410 0.9983 -0.0410
vn -0.9992 -0.0000 -0.0411
vn -0.9983 0.0410 0.0410
vn -0.9983 0.0410 -0.0410
vn 0.9599 0.0425 -0.2771
vn 0.9599 0.2771 -0.0425
vn 0.9983 0.0410 -0.0410
vn 0.7065 0.0411 -0.7065
vn 0.9175 0.2813 -0.2813
vn 0.7065 0.7065 -0.0411
vn 0.5774 0.5774 -0.5774
vn 0.6862 0.6862 -0.2416
vn 0.0425 0.2771 -0.9599
vn 0.2771 0.0425 -0.9599
vn 0.0411 0.7065 -0.7065
vn 0.2813 0.2813 -0.9175
vn 0.6862 0.2416 -0.6862
vn 0.2771 0.9599 -0.0425
vn 0.0425 0.9599 -0.2771
vn 0.2813 0.9175 -0.2813
vn 0.2416 0.6862 -0.6862
vn -0.2771 0.0425 -0.9599
vn -0.0425 0.2771 -0.9599
vn -0.7065 0.0411 -0.7065
vn -0.2813 0.2813 -0.9175
vn -0.0411 0.7065 -0.7065
vn -0.5773 0.5773 -0.5774
vn -0.2416 0.6862 -0.6862
vn -0.9599 0.2771 -0.0425
vn -0.9599 0.0425 -0.2771
vn -0.7065 0.7065 -0.0411
vn -0.9175 0.2813 -0.2813
vn -0.6862 0.2416 -0.6862
vn -0.0425 0.9599 -0.2771
vn -0.2771 0.9599 -0.0425
vn -0.2813 0.9175 -0.2813
vn -0.6862 0.6862 -0.2416
vn 0.9599 0.2771 0.0425
vn 0.9599 0.0425 0.2771
vn 0.9983 0.0410 0.0410
vn 0.7065 0.7065 0.0411
vn 0.9175 0.2813 0.2813
vn 0.7065 0.0411 0.7065
vn 0.5774 0.5774 0.5774
vn 0.6862 0.2416 0.6862
vn 0.0425 0.9599 0.2771
vn 0.2771 0.9599 0.0425
vn 0.0411 0.7065 0.7065
vn 0.2813 0.9175 0.2813
vn 0.6862 0.6862 0.2416
vn 0.2771 0.0425 0.9599
vn 0.0425 0.2771 0.9599
vn 0.2813 0.2813 0.9175
vn 0.2416 0.6862 0.6862
vn -0.9599 0.0425 0.2771
vn -0.9599 0.2771 0.0425
vn -0.7065 0.0411 0.7065
vn -0.9175 0.2813 0.2813
vn -0.7065 0.7065 0.0411
vn -0.5774 0.5774 0.5774
vn -0.6862 0.6862 0.2416
vn -0.0425 0.2771 0.9599
vn -0.2771 0.0425 0.9599
vn -0.0411 0.7065 0.7065
vn -0.2813 0.2813 0.9175
vn -0.6862 0.2416 0.6862
vn -0.2771 0.9599 0.0425
vn -0.0425 0.9599 0.2771
vn -0.0410 0.9983 0.0410
vn -0.2813 0.9175 0.2813
vn -0.2416 0.6862 0.6862
vn -0.9992 -0.0000 0.0411
vn -0.9602 -0.0000 0.2794
vn -0.7071 -0.0000 0.7071
vn -0.2794 -0.0000 0.9602
vn -0.9602 -0.0000 -0.2794
vn -0.7071 -0.0000 -0.7071
vn -0.2794 -0.0000 -0.9602
vn -0.0411 -0.0000 -0.9992
vn 0.9992 -0.0000 -0.0411
vn 0.9602 -0.0000 -0.2794
vn 0.7071 -0.0000 -0.7071
vn 0.2794 -0.0000 -0.9602
vn 0.9602 -0.0000 0.2794
vn 0.9992 -0.0000 0.0411
vn 0.7071 -0.0000 0.7071
vn 0.2794 -0.0000 0.9602
vn 0.0411 -0.0000 0.9992
vt -13.500000 0.711638
vt -13.500000 0.711638
vt -13.500000 -13.500000
vt -13.910257 0.711638
vt -14.274597 0.711638
vt -13.500000 0.301381
vt -13.934052 0.277586
vt -14.247879 0.298418
vt -14.167097 0.044540
vt -14.167097 -14.167097
vt -13.500000 0.301381
vt -13.500000 -14.274597
vt -13.500000 -0.062959
vt -13.910257 0.711638
vt -13.934052 0.277586
vt -13.913220 -0.036242
vt -13.913220 -14.247879
vt -13.910257 -13.500000
vt -13.500000 -0.062959
vt -14.274597 -13.500000
vt -13.500000 -13.910257
vt -13.934052 -13.934052
vt -13.913220 -0.036242
vt -14.247879 -13.913220
vt 14.500000 0.711638
vt -13.500000 0.711638
vt 14.500000 -13.500000
vt 14.910257 0.711638
vt -14.274597 0.711638
vt 15.274597 0.711638
vt 14.500000 0.301381
vt 14.934052 0.277586
vt 15.247879 0.298418
vt -14.247879 0.298418
vt 15.167097 0.044540
vt -14.167097 0.044540
vt 15.167097 -14.167097
vt -13.500000 0.301381
vt 15.274597 -13.500000
vt -13.500000 -0.062959
vt -13.910257 0.711638
vt -13.934052 0.277586
vt -13.913220 -0.036242
vt 15.247879 -13.913220
vt 14.500000 -13.910257
vt 14.500000 -0.062959
vt 14.500000 -14.274597
vt 14.910257 -13.500000
vt 14.934052 -13.934052
vt 14.913220 -0.036242
vt 14.913220 -14.247879
vt 14.500000 0.711638
vt -13.500000 14.500000
vt -13.500000 0.711638
vt 14.500000 0.301381
vt -14.274597 14.500000
vt 14.500000 -0.062959
vt 14.910257 0.711638
vt 14.934052 0.277586
vt 14.913220 -0.036242
vt -14.247879 14.913220
vt 15.167097 0.044541
vt -14.167097 15.167097
vt -14.167097 0.044541
vt -13.500000 14.910257
vt -13.500000 -0.062959
vt -13.500000 15.274597
vt -13.910257 14.500000
vt -13.934052 14.934052
vt -13.913220 15.247879
vt -13.913220 -0.036242
vt -13.910257 0.711638
vt 15.274597 0.711638
vt -14.274597 0.711638
vt -13.500000 0.301381
vt -13.934052 0.277586
vt 15.247879 0.298418
vt -14.247879 0.298418
vt 14.500000 0.711638
vt 14.500000 0.711638
vt 14.500000 14.500000
vt 14.910257 0.711638
vt 15.274597 0.711638
vt 14.500000 0.301381
vt 14.934052 0.277586
vt 15.247879 0.298418
vt 15.167097 0.044540
vt 15.167097 15.167097
vt 14.500000 0.301381
vt 14.500000 15.274597
vt 14.500000 -0.062959
vt 14.910257 0.711638
vt 14.934052 0.277586
vt 14.913220 -0.036242
vt 14.913220 15.247879
vt 14.910257 14.500000
vt 14.500000 -0.062959
vt 15.274597 14.500000
vt 14.500000 14.910257
vt 14.934052 14.934052
vt 14.913220 -0.036242
vt 15.247879 14.913220
vt -13.500000 2.711637
vt -13.500000 2.711637
vt -13.910257 2.711637
vt -14.274597 2.711637
vt -13.910257 2.711637
vt -13.500000 2.711637
vt 14.500000 2.711637
vt -13.910257 2.711637
vt 15.274597 2.711637
vt -14.274597 2.711637
vt 14.910257 2.711637
vt 14.500000 2.711637
vt -13.500000 2.711637
vt 14.910257 2.711637
vt -14.274597 2.711637
vt 15.274597 2.711637
vt -13.910257 2.711637
vt 14.500000 2.711637
vt 14.500000 2.711637
vt 14.910257 2.711637
vt 15.274597 2.711637
vt 14.910257 2.711637
s 1
f 77/103/1 20/25/2 2/2/3
f 92/120/4 41/54/5 59/80/6
f 22/27/7 40/53/8 3/3/9
f 82/108/10 58/79/11 21/26/12
f 4/4/13 6/6/14 1/1/15
f 5/5/16 7/7/17 4/4/13
f 7/7/17 16/19/18 6/6/14
f 7/7/17 9/9/19 19/23/20
f 10/11/21 12/14/22 2/2/3
f 11/13/23 13/15/24 10/11/21
f 13/15/24 5/5/16 12/14/22
f 13/15/24 9/9/19 8/8/25
f 15/18/26 17/21/27 3/3/9
f 16/20/18 18/22/28 15/18/26
f 18/22/28 11/12/23 17/21/27
f 18/22/28 9/10/19 14/17/29
f 23/28/30 25/31/31 20/25/2
f 24/30/32 26/32/33 23/28/30
f 26/32/33 35/46/34 25/31/31
f 26/32/33 28/35/35 38/50/36
f 29/38/37 31/41/38 21/26/12
f 30/40/39 32/42/40 29/38/37
f 32/42/40 24/29/32 31/41/38
f 32/42/40 28/36/35 27/34/41
f 34/45/42 36/48/43 22/27/7
f 35/47/34 37/49/44 34/45/42
f 37/49/44 30/39/39 36/48/43
f 37/49/44 28/37/35 33/44/45
f 42/55/46 44/58/47 39/52/48
f 43/57/49 45/59/50 42/55/46
f 45/59/50 54/73/51 44/58/47
f 45/59/50 47/62/52 57/77/53
f 48/65/54 50/68/55 40/53/8
f 49/67/56 51/69/57 48/65/54
f 51/69/57 43/56/49 50/68/55
f 51/69/57 47/63/52 46/61/58
f 53/72/59 55/75/60 41/54/5
f 54/74/51 56/76/61 53/72/59
f 56/76/61 49/66/56 55/75/60
f 56/76/61 47/64/52 52/71/62
f 61/82/63 63/84/64 58/79/11
f 62/83/65 64/85/66 61/82/63
f 64/85/66 73/97/67 63/84/64
f 64/85/66 66/87/68 76/101/69
f 67/89/70 69/92/71 59/80/6
f 68/91/72 70/93/73 67/89/70
f 70/93/73 62/83/65 69/92/71
f 70/93/73 66/87/68 65/86/74
f 72/96/75 74/99/76 60/81/77
f 73/98/67 75/100/78 72/96/75
f 75/100/78 68/90/72 74/99/76
f 75/100/78 66/88/68 71/95/79
f 1/1/15 42/55/46 39/52/48
f 6/6/14 43/57/49 42/55/46
f 16/20/18 50/68/55 43/56/49
f 15/18/26 40/53/8 50/68/55
f 20/25/2 10/11/21 2/2/3
f 25/31/31 11/13/23 10/11/21
f 35/47/34 17/21/27 11/12/23
f 34/45/42 3/3/9 17/21/27
f 58/79/11 29/38/37 21/26/12
f 63/84/64 30/40/39 29/38/37
f 73/98/67 36/48/43 30/39/39
f 72/96/75 22/27/7 36/48/43
f 41/54/5 67/89/70 59/80/6
f 55/75/60 68/91/72 67/89/70
f 49/67/56 74/99/76 68/90/72
f 48/65/54 60/81/77 74/99/76
f 93/121/80 61/82/63 58/79/11
f 96/124/81 62/83/65 61/82/63
f 95/123/82 69/92/71 62/83/65
f 94/122/83 59/80/6 69/92/71
f 21/26/12 84/110/84 82/108/10
f 31/41/38 85/112/85 84/110/84
f 24/30/32 86/113/86 85/111/85
f 23/28/30 83/109/87 86/113/86
f 78/104/88 4/4/13 1/1/15
f 81/107/89 5/5/16 4/4/13
f 80/106/90 12/14/22 5/5/16
f 79/105/91 2/2/3 12/14/22
f 39/52/48 89/116/92 87/114/93
f 44/58/47 90/118/94 89/116/92
f 54/74/51 91/119/95 90/117/94
f 53/72/59 88/115/96 91/119/95
f 87/114/93 1/1/15 39/52/48
f 77/103/1 83/109/87 20/25/2
f 92/120/4 88/115/96 41/54/5
f 22/27/7 60/81/77 40/53/8
f 82/108/10 93/121/80 58/79/11
f 4/4/13 7/7/17 6/6/14
f 5/5/16 8/8/25 7/7/17
f 7/7/17 19/23/20 16/19/18
f 7/7/17 8/8/25 9/9/19
f 10/11/21 13/15/24 12/14/22
f 11/13/23 14/16/29 13/15/24
f 13/15/24 8/8/25 5/5/16
f 13/15/24 14/16/29 9/9/19
f 15/18/26 18/22/28 17/21/27
f 16/20/18 19/24/20 18/22/28
f 18/22/28 14/17/29 11/12/23
f 18/22/28 19/24/20 9/10/19
f 23/28/30 26/32/33 25/31/31
f 24/30/32 27/33/41 26/32/33
f 26/32/33 38/50/36 35/46/34
f 26/32/33 27/33/41 28/35/35
f 29/38/37 32/42/40 31/41/38
f 30/40/39 33/43/45 32/42/40
f 32/42/40 27/34/41 24/29/32
f 32/42/40 33/43/45 28/36/35
f 34/45/42 37/49/44 36/48/43
f 35/47/34 38/51/36 37/49/44
f 37/49/44 33/44/45 30/39/39
f 37/49/44 38/51/36 28/37/35
f 42/55/46 45/59/50 44/58/47
f 43/57/49 46/60/58 45/59/50
f 45/59/50 57/77/53 54/73/51
f 45/59/50 46/60/58 47/62/52
f 48/65/54 51/69/57 50/68/55
f 49/67/56 52/70/62 51/69/57
f 51/69/57 46/61/58 43/56/49
f 51/69/57 52/70/62 47/63/52
f 53/72/59 56/76/61 55/75/60
f 54/74/51 57/78/53 56/76/61
f 56/76/61 52/71/62 49/66/56
f 56/76/61 57/78/53 47/64/52
f 61/82/63 64/85/66 63/84/64
f 62/83/65 65/86/74 64/85/66
f 64/85/66 76/101/69 73/97/67
f 64/85/66 65/86/74 66/87/68
f 67/89/70 70/93/73 69/92/71
f 68/91/72 71/94/79 70/93/73
f 70/93/73 65/86/74 62/83/65
f 70/93/73 71/94/79 66/87/68
f 72/96/75 75/100/78 74/99/76
f 73/98/67 76/102/69 75/100/78
f 75/100/78 71/95/79 68/90/72
f 75/100/78 76/102/69 66/88/68
f 1/1/15 6/6/14 42/55/46
f 6/6/14 16/19/18 43/57/49
f 16/20/18 15/18/26 50/68/55
f 15/18/26 3/3/9 40/53/8
f 20/25/2 25/31/31 10/11/21
f 25/31/31 35/46/34 11/13/23
f 35/47/34 34/45/42 17/21/27
f 34/45/42 22/27/7 3/3/9
f 58/79/11 63/84/64 29/38/37
f 63/84/64 73/97/67 30/40/39
f 73/98/67 72/96/75 36/48/43
f 72/96/75 60/81/77 22/27/7
f 41/54/5 55/75/60 67/89/70
f 55/75/60 49/66/56 68/91/72
f 49/67/56 48/65/54 74/99/76
f 48/65/54 40/53/8 60/81/77
f 93/121/80 96/124/81 61/82/63
f 96/124/81 95/123/82 62/83/65
f 95/123/82 94/122/83 69/92/71
f 94/122/83 92/120/4 59/80/6
f 21/26/12 31/41/38 84/110/84
f 31/41/38 24/29/32 85/112/85
f 24/30/32 23/28/30 86/113/86
f 23/28/30 20/25/2 83/109/87
f 78/104/88 81/107/89 4/4/13
f 81/107/89 80/106/90 5/5/16
f 80/106/90 79/105/91 12/14/22
f 79/105/91 77/103/1 2/2/3
f 39/52/48 44/58/47 89/116/92
f 44/58/47 54/73/51 90/118/94
f 54/74/51 53/72/59 91/119/95
f 53/72/59 41/54/5 88/115/96
f 87/114/93 78/104/88 1/1/15
