# Blender 3.4.1
# www.blender.org
mtllib raygun-beam.mtl
o Lazer
v -0.011314 1.600000 100.500000
v 0.000000 1.614142 100.500000
v -0.014142 1.600000 2.500000
v -0.000000 1.614142 2.500000
v 0.000000 1.585858 100.500000
v 0.011314 1.600000 100.500000
v -0.000000 1.585858 2.500000
v 0.014142 1.600000 2.500000
vn -0.7809 0.6247 -0.0000
vn 0.7071 -0.7071 -0.0000
vn -0.7071 -0.7071 -0.0000
vn 0.7071 0.7071 -0.0000
vn -0.7071 0.7071 -0.0000
vn 0.7809 -0.6247 -0.0000
vn -0.7809 -0.6247 -0.0000
vn 0.7809 0.6247 -0.0000
vt 0.347642 0.000061
vt 0.502066 0.000061
vt 0.347635 0.999931
vt 0.502060 0.999931
vt 0.810915 0.000069
vt 0.193218 0.000061
vt 0.656491 0.000069
vt 0.810908 0.999939
vt 0.193211 0.999931
vt 0.656484 0.999939
s 0
usemtl ray-beam
f 2/2/1 3/3/1 1/1/1
f 8/10/2 5/5/2 7/8/2
f 7/9/3 1/1/3 3/3/3
f 4/4/4 6/7/4 8/10/4
f 2/2/5 4/4/5 3/3/5
f 8/10/6 6/7/6 5/5/6
f 7/9/7 5/6/7 1/1/7
f 4/4/8 2/2/8 6/7/8
