# Blender 3.4.1
# www.blender.org
mtllib slowdown-block.mtl
o Plane
v -2.000000 -0.100000 5.000000
v 2.000000 -0.100000 5.000000
v -2.000000 -0.100000 -5.000000
v 2.000000 -0.100000 -5.000000
v -2.000000 0.300000 5.000000
v 2.000000 0.300000 5.000000
v -2.000000 0.300000 -5.000000
v 2.000000 0.300000 -5.000000
vn -0.0000 -1.0000 -0.0000
vn -0.0000 1.0000 -0.0000
vn -0.0000 -0.0000 -1.0000
vn -0.0000 -0.0000 1.0000
vn 1.0000 -0.0000 -0.0000
vn -1.0000 -0.0000 -0.0000
vt 0.300000 0.000000
vt 0.300000 0.480000
vt 0.000000 0.480000
vt 0.000000 0.480000
vt 0.700000 0.000000
vt 0.700000 0.480000
vt 1.000000 0.480000
vt 0.300000 1.000000
vt 0.300000 0.480000
vt 0.700000 0.480000
vt 0.700000 1.000000
vt 1.000000 0.480000
vt 0.300000 0.000000
vt 0.300000 0.520000
vt 0.000000 0.520000
vt 0.700000 0.000000
vt 0.700000 0.520000
vt 0.000000 0.520000
vt 0.300000 1.000000
vt 0.300000 0.520000
vt 1.000000 0.520000
vt 0.700000 1.000000
vt 0.700000 0.520000
vt 1.000000 0.520000
s 0
usemtl Material
f 3/8/1 2/5/1 1/1/1
f 6/16/2 7/19/2 5/13/2
f 3/9/3 8/23/3 4/10/3
f 2/6/4 5/14/4 1/2/4
f 4/12/5 6/18/5 2/4/5
f 1/3/6 7/21/6 3/7/6
f 3/8/1 4/11/1 2/5/1
f 6/16/2 8/22/2 7/19/2
f 3/9/3 7/20/3 8/23/3
f 2/6/4 6/17/4 5/14/4
f 4/12/5 8/24/5 6/18/5
f 1/3/6 5/15/6 7/21/6
