# Blender 3.4.1
# www.blender.org
mtllib test-ground.mtl
o Plane
v -50.000000 0.000000 50.000000
v 50.000000 0.000000 50.000000
v -50.000000 0.000000 -50.000000
v 50.000000 0.000000 -50.000000
v -50.000000 0.000000 -25.000000
v -50.000000 0.000000 0.000000
v -50.000000 0.000000 25.000000
v -25.000000 0.000000 50.000000
v 0.000000 0.000000 50.000000
v 25.000000 0.000000 50.000000
v 50.000000 0.000000 25.000000
v 50.000000 0.000000 0.000000
v 50.000000 0.000000 -25.000000
v 25.000000 0.000000 -50.000000
v 0.000000 0.000000 -50.000000
v -25.000000 0.000000 -50.000000
v -25.000000 -8.039813 25.000000
v -25.000000 -1.713139 0.000000
v -25.000000 0.000000 -25.000000
v 0.000000 -1.713139 25.000000
v 0.000000 0.000562 0.000000
v 0.000000 1.713139 -25.000000
v 25.000000 0.000000 25.000000
v 25.000000 1.713139 0.000000
v 25.000000 8.039813 -25.000000
vn 0.2927 0.9103 -0.2927
vn -0.0000 1.0000 -0.0000
vn -0.0000 0.9977 -0.0684
vn 0.0684 0.9977 -0.0000
vn -0.2342 0.9255 -0.2976
vn -0.2383 0.9415 0.2383
vn -0.0682 0.9953 0.0682
vn -0.0682 0.9953 -0.0682
vn 0.0682 0.9953 0.0682
vn 0.2976 0.9255 0.2342
vt 0.000000 0.000000
vt 1.000000 0.000000
vt 0.000000 1.000000
vt 1.000000 1.000000
vt 0.000000 0.750000
vt 0.000000 0.500000
vt 0.000000 0.250000
vt 0.250000 0.000000
vt 0.500000 0.000000
vt 0.750000 0.000000
vt 1.000000 0.250000
vt 1.000000 0.500000
vt 1.000000 0.750000
vt 0.750000 1.000000
vt 0.500000 1.000000
vt 0.250000 1.000000
vt 0.250000 0.250000
vt 0.250000 0.500000
vt 0.250000 0.750000
vt 0.500000 0.250000
vt 0.500000 0.500000
vt 0.500000 0.750000
vt 0.750000 0.250000
vt 0.750000 0.500000
vt 0.750000 0.750000
s 0
f 13/13/1 14/14/1 25/25/1
f 19/19/2 3/3/2 5/5/2
f 19/19/2 15/15/2 16/16/2
f 22/22/3 14/14/3 15/15/3
f 8/8/2 7/7/2 1/1/2
f 7/7/4 18/18/4 6/6/4
f 6/6/2 19/19/2 5/5/2
f 8/8/5 20/20/5 17/17/5
f 20/20/6 18/18/6 17/17/6
f 21/21/7 19/19/7 18/18/7
f 9/9/8 23/23/8 20/20/8
f 23/23/7 21/21/7 20/20/7
f 24/24/7 22/22/7 21/21/7
f 2/2/2 23/23/2 10/10/2
f 23/23/9 12/12/9 24/24/9
f 24/24/10 13/13/10 25/25/10
f 13/13/2 4/4/2 14/14/2
f 19/19/2 16/16/2 3/3/2
f 19/19/8 22/22/8 15/15/8
f 22/22/5 25/25/5 14/14/5
f 8/8/1 17/17/1 7/7/1
f 7/7/10 17/17/10 18/18/10
f 6/6/9 18/18/9 19/19/9
f 8/8/3 9/9/3 20/20/3
f 20/20/7 21/21/7 18/18/7
f 21/21/7 22/22/7 19/19/7
f 9/9/2 10/10/2 23/23/2
f 23/23/7 24/24/7 21/21/7
f 24/24/6 25/25/6 22/22/6
f 2/2/2 11/11/2 23/23/2
f 23/23/2 11/11/2 12/12/2
f 24/24/4 12/12/4 13/13/4
